<svg width="947" height="286" viewBox="0 0 947 286" fill="none" xmlns="http://www.w3.org/2000/svg">
  <rect width="947" height="286" fill="#111111"/>
  <path d="M335 86H389V286H335V86Z" fill="white"/>
  <path d="M425 86H479V286H425V86Z" fill="white"/>
  <path d="M180 251C180 270.33 164.33 286 145 286C125.67 286 110 270.33 110 251C110 231.67 125.67 216 145 216C164.33 216 180 231.67 180 251Z" fill="#00D4FF"/>
  <path fillRule="evenodd" clipRule="evenodd" d="M0 286L0.00488281 39H0.667969H5.58887C13.9136 68.0675 31.0835 93.3978 54 111.894V286H0Z" fill="white"/>
  <path fillRule="evenodd" clipRule="evenodd" d="M290 286H236V111.894C258.917 93.3978 276.086 68.0674 284.41 39H289.332H289.995L290 286Z" fill="white"/>
  <path d="M655 186C655 163.909 637.091 146 615 146C592.909 146 575 163.909 575 186C575 208.091 592.909 226 615 226V286C559.772 286 515 241.228 515 186C515 130.772 559.772 86 615 86C670.228 86 715 130.772 715 186C715 241.228 670.228 286 615 286V226C637.091 226 655 208.091 655 186Z" fill="white"/>
  <path d="M887 186C887 163.909 869.091 146 847 146C824.909 146 807 163.909 807 186C807 208.091 824.909 226 847 226V286C791.772 286 747 241.228 747 186C747 130.772 791.772 86 847 86C902.228 86 947 130.772 947 186C947 241.228 902.228 286 847 286V226C869.091 226 887 208.091 887 186Z" fill="white"/>
  <path opacity="0.4" d="M423 0C441.225 0 456 14.7746 456 33C456 51.2254 441.225 66 423 66C417.194 66 411.74 64.498 407 61.8652C417.138 56.2337 424 45.4193 424 33C424 20.5805 417.138 9.76525 407 4.13379C411.739 1.50119 417.194 0 423 0Z" fill="#00D4FF"/>
  <path opacity="0.2" d="M455 0C473.225 0 488 14.7746 488 33C488 51.2254 473.225 66 455 66C449.194 66 443.74 64.498 439 61.8652C449.138 56.2337 456 45.4193 456 33C456 20.5805 449.138 9.76525 439 4.13379C443.739 1.50119 449.194 0 455 0ZM423.951 34.7764C423.938 35.0196 423.923 35.2621 423.905 35.5039C423.923 35.2621 423.938 35.0196 423.951 34.7764Z" fill="#00D4FF"/>
  <path opacity="0.6" d="M424 33C424 51.2254 409.225 66 391 66C372.775 66 358 51.2254 358 33C358 14.7746 372.775 0 391 0C409.225 0 424 14.7746 424 33Z" fill="#00D4FF"/>
  <path d="M392 33C392 51.2254 377.225 66 359 66C340.775 66 326 51.2254 326 33C326 14.7746 340.775 0 359 0C377.225 0 392 14.7746 392 33Z" fill="#00D4FF"/>
  <path fillRule="evenodd" clipRule="evenodd" d="M145 144C211.206 144 267.047 99.6278 284.41 39H289.332C289.773 43.6071 290 48.2771 290 53C290 133.081 225.081 198 145 198C64.9189 198 0 133.081 0 53C0 48.2772 0.226074 43.6072 0.667969 39H5.58887C22.9517 99.6278 78.7935 144 145 144Z" fill="white"/>
</svg>
