<svg width="485" height="485" viewBox="0 0 485 485" fill="none" xmlns="http://www.w3.org/2000/svg">
<circle cx="242.5" cy="242.5" r="242.5" fill="white"/>
<path d="M279.474 336.158C279.474 356.505 262.979 373 242.632 373C222.284 373 205.79 356.505 205.79 336.158C205.79 315.81 222.284 299.316 242.632 299.316C262.979 299.316 279.474 315.81 279.474 336.158Z" fill="#00C8FF"/>
<path fill-rule="evenodd" clip-rule="evenodd" d="M90 373L90.0051 113H90.7031H95.883C104.646 143.597 122.719 170.261 146.842 189.73V373H90Z" fill="black"/>
<path fill-rule="evenodd" clip-rule="evenodd" d="M395.263 373H338.421V189.73C362.544 170.261 380.617 143.597 389.379 113H394.56H395.258L395.263 373Z" fill="black"/>
<path fill-rule="evenodd" clip-rule="evenodd" d="M242.632 223.526C312.322 223.526 371.102 176.819 389.379 113H394.56C395.025 117.85 395.263 122.765 395.263 127.737C395.263 212.033 326.928 280.368 242.632 280.368C158.336 280.368 90 212.033 90 127.737C90 122.765 90.238 117.85 90.7031 113H95.883C114.16 176.819 172.94 223.526 242.632 223.526Z" fill="black"/>
</svg>
